# xmcd
#
# Track frame offsets: 
#        150
#        22938
#        38213
#        50246
#        71504
#        86566
#        107459
#        122355
#        164590
#        179215
#        209105
#        224370
#        256906
#        298212
#        319945
#
# Disc length: 4710 seconds
#
# Revision: 2
# Processed by: cddbd v1.5.2PL0 Copyright (c) Steve Scherf et al.
# Submitted via: ExactAudioCopy v0.95b3
#
DISCID=ea12640f
DTITLE=Diverse - Jazz Expressions
DYEAR=2004
DGENRE=Jazz
TTITLE0=Herbie Hancock - Herbie's Blues
TTITLE1=Quincy Jones - Exodus
TTITLE2=Charlie Parker - Yardbird suite
TTITLE3=John Coltrane - Naima
TTITLE4=Nat King Cole Trio - Body and Soul
TTITLE5=Miles Davis - Mr. Lucky
TTITLE6=Duke Ellington - In a mellow tone
TTITLE7=Charles Mingus - I'll remember April
TTITLE8=Charlie Parker - My old flame
TTITLE9=Herbie Hancock - Rock your soul
TTITLE10=Count Basie - Broadway
TTITLE11=Miles Davis - Walkin
TTITLE12=Theolonious Monk - Rhythm a ning
TTITLE13=Chet Baker - Ladybird
TTITLE14=John Coltrane - Impressions
EXTD=YEAR: 2004
EXTT0=
EXTT1=
EXTT2=
EXTT3=
EXTT4=
EXTT5=
EXTT6=
EXTT7=
EXTT8=
EXTT9=
EXTT10=
EXTT11=
EXTT12=
EXTT13=
EXTT14=
PLAYORDER=
